<?xml version="1.0" encoding="UTF-8"?><svg id="Layer_2" xmlns="http://www.w3.org/2000/svg" viewBox="0 0 62.29 54.75"><defs><style>.cls-1{fill:#fff;}.cls-1,.cls-2{stroke:#000;stroke-linecap:round;stroke-linejoin:round;stroke-width:3px;}.cls-2{fill:none;}</style></defs><g id="Layer_1-2"><g><path class="cls-2" d="M28.77,52.17c-8.84-5.24-16.94-2.58-24.78,.95-1.11,.5-2.49-.47-2.49-1.75,0-18.11,0-28.78,0-46.88,0-.59,.31-1.11,.82-1.34,10.09-4.56,19.19,1.22,28,7.41,.51,.36,.83,.95,.83,1.54,0,15.43,0,23.42,0,38.85,0,1.22-1.27,1.88-2.37,1.22Z"/><g><path class="cls-2" d="M25.48,44.58c-2.31-.68-4.68-1.02-7.1-1.02-3.97,0-7.69,.89-11.21,2.14"/><path class="cls-2" d="M7.17,38.05c2.98-1.04,6.13-1.77,9.48-1.77,2.93,0,5.89,.91,8.83,2.2"/><path class="cls-2" d="M7.17,30.4c2.45-.83,5.02-1.4,7.75-1.4,3.44,0,6.99,1.47,10.56,3.38"/><path class="cls-2" d="M7.17,22.75c1.91-.61,3.91-1.03,6.02-1.03,3.95,0,8.09,2.03,12.29,4.56"/><path class="cls-2" d="M7.17,15.1c1.38-.4,2.8-.65,4.29-.65,4.47,0,9.19,2.59,14.02,5.74"/><path class="cls-2" d="M7.17,7.45c.84-.19,1.69-.28,2.56-.28,4.98,0,10.29,3.16,15.75,6.92"/></g><g><path class="cls-2" d="M36.66,44.58c2.31-.68,4.68-1.02,7.1-1.02,3.97,0,7.69,.89,11.21,2.14"/><path class="cls-2" d="M54.96,38.05c-2.98-1.04-6.13-1.77-9.48-1.77-2.93,0-5.89,.91-8.83,2.2"/><path class="cls-2" d="M54.96,30.4c-2.45-.83-5.02-1.4-7.75-1.4-3.44,0-6.99,1.47-10.56,3.38"/><path class="cls-2" d="M54.96,22.75c-1.91-.61-3.91-1.03-6.02-1.03-3.95,0-8.09,2.03-12.29,4.56"/><path class="cls-2" d="M54.96,15.1c-1.38-.4-2.8-.65-4.29-.65-4.47,0-9.19,2.59-14.02,5.74"/><path class="cls-2" d="M54.96,7.45c-.84-.19-1.69-.28-2.56-.28-4.98,0-10.29,3.16-15.75,6.92"/></g><path class="cls-2" d="M33.52,52.17c8.84-5.24,16.94-2.58,24.78,.95,1.11,.5,2.49-.47,2.49-1.75,0-18.11,0-28.78,0-46.88,0-.59-.31-1.11-.82-1.34-10.09-4.56-19.19,1.22-28,7.41-.51,.36-.83,.95-.83,1.54,0,15.43,0,23.42,0,38.85,0,1.22,1.27,1.88,2.37,1.22Z"/><path class="cls-1" d="M38.72,16.25c.77,.04,1.54,.19,2.29,.48,2.01,.76,3.66,2.43,4.37,4.46,1.01,2.93,.4,7.02-1.33,9.57-.34,.5-.7,.98-1.1,1.44-1.81,2.07-3.84,3.92-5.91,5.72-.63,.54-5.75,5.29-6.03,5.03-2.45-2.23-4.92-4.44-7.42-6.61-1.61-1.4-3.25-2.8-4.57-4.48-1.63-2.08-2.6-4.88-2.6-7.53,0-1.99,.61-4.01,1.88-5.54,1.57-1.89,4.04-2.7,6.44-2.43,1.31,.15,2.59,.6,3.69,1.32,.56,.36,1.07,.8,1.5,1.3,.22,.24,.41,.5,.59,.78s.31,.61,.62,.75c.34-.45,.62-.93,.99-1.36,1.6-1.84,4.1-3.01,6.58-2.89Z"/></g></g></svg>