<svg id="c3full_black" xmlns="http://www.w3.org/2000/svg" width="303.709" height="109.055" viewBox="0 0 303.709 109.055">
  <path id="Path_4983" data-name="Path 4983" d="M23.272,68.43V93.859c0,3.216-1.38,4.592-4.44,4.592h-2.3c-3.064,0-4.44-1.38-4.44-4.592V15.16c0-3.216,1.38-4.592,4.44-4.592h1.992c3.216,0,4.592,1.38,4.592,4.592V39.182H34.755V14.392C34.755,4.748,30.164,0,20.364,0h-5.82C4.9,0,0,4.9,0,14.548V94.471c0,9.644,4.9,14.544,14.544,14.544h5.972c9.8,0,14.544-4.9,14.544-14.544V68.43H23.272Z" transform="translate(0)" fill="#1f1f1f"/>
  <path id="Path_4984" data-name="Path 4984" d="M128.552,1.63H116.568V94.743c0,3.073-1.385,4.61-4.61,4.61h-1.845c-3.225,0-4.61-1.537-4.61-4.61V1.63H93.52V95.207c0,9.836,4.762,14.749,14.6,14.749h5.838c9.836,0,14.6-4.918,14.6-14.749Z" transform="translate(-51.747 -0.902)" fill="#1f1f1f"/>
  <path id="Path_4985" data-name="Path 4985" d="M187.98,1.63V109.188h24.741V98.276H199.964V1.63Z" transform="translate(-104.015 -0.902)" fill="#1f1f1f"/>
  <path id="Path_4986" data-name="Path 4986" d="M257.66,109.188V12.538h10.3V1.63H235.38V12.538h10.3v96.651Z" transform="translate(-130.243 -0.902)" fill="#1f1f1f"/>
  <path id="Path_4987" data-name="Path 4987" d="M356.292,1.63H344.308V94.743c0,3.073-1.385,4.61-4.61,4.61h-1.845c-3.225,0-4.61-1.537-4.61-4.61V1.63H321.26V95.207c0,9.836,4.762,14.749,14.6,14.749H341.7c9.836,0,14.6-4.918,14.6-14.749Z" transform="translate(-177.763 -0.902)" fill="#1f1f1f"/>
  <path id="Path_4988" data-name="Path 4988" d="M444.141,54c4.3-1.688,6.763-4.779,6.763-11.694V16.227c0-9.836-4.3-14.6-14.6-14.6H416.64V109.193h11.984V59.532H434c3.381,0,5.07,1.537,5.07,5.07v44.591h11.984V64.3c0-5.842-2.153-8.916-6.914-10.3Zm-5.226-37.158V44.613c0,3.381-1.537,4.918-4.918,4.918H428.62V12.386h5.686c3.225,0,4.61,1.385,4.61,4.458h0Z" transform="translate(-230.539 -0.902)" fill="#1f1f1f"/>
  <path id="b" d="M522.614,93.863c0,3.216,1.38,4.592,4.592,4.592H529.2c3.064,0,4.592-1.38,4.592-4.592V68.448h11.332V94.632c0,9.648-4.748,14.392-14.392,14.392h-5.512c-9.648,0-14.548-4.9-14.548-14.548V63.24c0-5.664,1.992-8.728,6.736-10.1-4.136-1.537-6.432-4.9-6.432-11.64V14.548C510.978,4.9,515.722,0,525.522,0h4.9c9.648,0,14.548,4.9,14.548,14.548v24.5H533.486V15.16c0-3.216-1.532-4.592-4.44-4.592h-1.684c-3.064,0-4.592,1.38-4.592,4.592V43.948q0,4.6,4.592,4.592h9.952V59.26h-10.26c-3.064,0-4.44,1.38-4.44,4.44Z" transform="translate(-282.569)" fill="#1f1f1f"/>
  <path id="c" d="M625.318,93.863c0,3.216-1.38,4.592-4.592,4.592h-1.992c-3.064,0-4.592-1.38-4.592-4.592V68.448H602.81V94.632c0,9.648,4.748,14.392,14.392,14.392h5.512c9.648,0,14.548-4.9,14.548-14.548V63.24c0-5.664-1.992-8.728-6.736-10.1,4.136-1.537,6.432-4.9,6.432-11.64V14.548C636.958,4.9,632.21,0,622.41,0h-4.9c-9.648,0-14.548,4.9-14.548,14.548v24.5h11.484V15.16c0-3.216,1.532-4.592,4.44-4.592h1.684c3.064,0,4.592,1.38,4.592,4.592V43.948q0,4.6-4.592,4.592h-9.952V59.26h10.26c3.064,0,4.44,1.38,4.44,4.44Z" transform="translate(-333.553)" fill="#1f1f1f"/>
</svg>
