<?xml version="1.0" encoding="UTF-8"?><svg id="Layer_2" xmlns="http://www.w3.org/2000/svg" viewBox="0 0 70.71 65.46"><g id="Layer_1-2"><g><path d="M51.44,31.68c-1.17-3.12-2.47-6.17-3.73-9.26-1.11-2.73-2.58-5.37-4.58-7.56-2.18-2.39-4.79-3.32-7.73-4.43-3.35-1.26-6.6-2.71-9.97-3.93-1.7-.61-3.35-1.35-4.81-2.42-1.39-1.02-2.36-2.47-3.6-3.66-1.34-1.29-3.13,.61-2,2.01,.87,1.08,1.32,2.41,2.25,3.47,.96,1.1,2.14,2.01,3.41,2.73,2.54,1.46,5.43,2.13,8.11,3.28,2.73,1.17,5.53,2.19,8.25,3.36,2.57,1.11,4.24,3.45,5.59,5.79,1.47,2.55,2.55,5.49,3.63,8.23,.52,1.32,1.03,2.66,1.5,3.99,.25,.71,.46,1.43,.69,2.15,.19,.62,.67,1.65,.57,2.3-.07,.43-.53,.98-.84,1.27-.57,.52-.66,.48-1.34,.06-1.16-.72-2.09-1.83-2.84-2.95-1.47-2.21-2.39-4.69-3.64-7.02-1.44-2.69-3.53-4.99-6.29-6.35-1.93-.95-5.36-2.04-7.34-.69-1.27,.7-2.06,2.04-1.49,3.63,.33,.92,1.07,1.46,1.84,2.01,1.21,.86,2.28,1.74,3.11,2.98,.61,.92,1.75,2.54,1.49,3.7-.17,.73-.79,.83-1.54,.94-2.69,.39-4.79-1.02-6.93-2.41-2.31-1.51-4.78-2.96-6.46-5.2-1.5-1.98-2.51-4.27-3.8-6.37-.72-1.17-1.47-2.38-2.38-3.42-.78-.88-1.72-1.6-2.52-2.46-1.62-1.78-3.63-2.94-5.54-4.38-1.36-1.03-3.08,.93-2.26,2.26,.68,1.11,1.64,1.81,2.7,2.54,1.11,.77,1.91,1.59,2.84,2.56,.97,1.01,2.04,1.83,2.84,2.99,.8,1.15,1.51,2.35,2.15,3.59,1.25,2.41,2.78,4.93,4.74,6.84,2.08,2.02,4.59,3.6,7,5.19,2.17,1.42,4.65,2.3,7.28,2.08,1.3-.11,2.75-.43,3.84-1.2,.06,.06,.1,.13,.16,.19,.98,.92,2.25,1.37,3.59,1.23,1.14-.12,2.33-.52,3.23-1.27,1.21,1.88,2.73,3.63,4.68,4.67,2.84,1.52,5.44,0,7-2.53,1.62-2.62,.16-5.93-.81-8.54Zm-12.95,3.42c-.09,.06-.18,.13-.27,.19-.13,.09-.28,.15-.42,.22-.29,.1-.58,.18-.88,.24-.19,.02-.39,.02-.58,0-.01,0-.03,0-.04-.01,0,0,0,0-.02,0-.07-.04-.15-.08-.22-.12-.08-.04-.15-.09-.22-.14-.05-.05-.1-.09-.14-.14-.01-.03-.03-.06-.05-.09-.05-.15-.1-.3-.16-.45-.05-.12-.1-.23-.16-.34,.02-2.14-1.19-4.38-2.37-6.01-.8-1.11-1.74-2.05-2.83-2.88-.1-.07-.22-.18-.36-.3,.04,0,.1,0,.13,.01,.68,.14,1.35,.36,1.98,.65,1.42,.64,2.7,1.63,3.67,2.85,1.44,1.81,2.29,4.03,3.28,6.13-.07,.04-.15,.05-.22,.1-.45,.35-.49,.38-.13,.1Z"/><path d="M58.02,57.23c-.2-.69-.14-1.43-.24-2.14-.11-.79-.34-1.51-.76-2.18-.73-1.19-1.81-1.99-3.03-2.44-1.24-.45-2.58-.42-3.87-.42-1.42,0-2.85,.02-4.27,0-2.28-.03-4.84,.2-6.68,1.85-1.73,1.55-2.89,4.75-1.97,7.15,.37,.96,1.24,1.6,2.19,1.27,.83-.29,1.5-1.45,1.12-2.42-.44-1.14,.29-2.74,1.3-3.32,1.37-.79,3.14-.69,4.64-.66,1.1,.03,2.2,0,3.3,0,.93,0,1.93-.1,2.85,.13,.6,.15,1.21,.44,1.55,1.05,.23,.41,.2,.83,.23,1.29,.04,.68,.12,1.35,.31,2,.69,2.37,4.01,1.22,3.32-1.15Z"/><rect x="33.36" y="57.37" width="28.09" height="8.09" rx="1.49" ry="1.49"/><path d="M70.04,42.52c-4.37-1.03-4.99-1.65-6.02-6.02-.09-.39-.44-.67-.84-.67s-.75,.28-.84,.67c-1.03,4.37-1.65,4.99-6.02,6.02-.39,.09-.67,.44-.67,.84s.28,.75,.67,.84c4.37,1.03,4.99,1.65,6.02,6.02,.09,.39,.44,.67,.84,.67s.75-.28,.84-.67c1.03-4.37,1.65-4.99,6.02-6.02,.39-.09,.67-.44,.67-.84s-.28-.75-.67-.84Zm-6.86,3.21c-.49-1.23-1.14-1.88-2.37-2.37,1.23-.49,1.88-1.14,2.37-2.37,.49,1.23,1.14,1.88,2.37,2.37-1.23,.49-1.88,1.14-2.37,2.37Z"/><path d="M28.81,54.52c-.84-1.91-1.96-3.04-3.88-3.88-.16-.07-.16-.28,0-.35,1.91-.84,3.04-1.96,3.88-3.88,.07-.16,.28-.16,.35,0,.84,1.91,1.96,3.04,3.88,3.88,.16,.07,.16,.28,0,.35-1.91,.84-3.04,1.96-3.88,3.88-.07,.16-.28,.16-.35,0Z"/></g></g></svg>