<?xml version="1.0" encoding="UTF-8"?><svg id="Layer_2" xmlns="http://www.w3.org/2000/svg" viewBox="0 0 61.9 62.95"><defs><style>.cls-1{fill:none;stroke:#000;stroke-linecap:round;stroke-linejoin:round;stroke-width:3px;}</style></defs><g id="Layer_1-2"><g><path class="cls-1" d="M2.63,60.61c5.3-2.84,10.68,.33,16.24,.21,2.69-.06,4.46-1.41,7.07-1.99,2.54-.57,4.65-.13,7.15,.47s4.57,1.75,7,2.09,3.86-.63,5.98-1.03c4.42-.82,10.43,1.58,14.32-.28"/><path class="cls-1" d="M1.5,12.31c.91,3.52,.1,6.94,.51,10.54,.52,4.6,1.93,8.9,3.76,13.14,1.47,3.4,5.35,5.19,8.78,6.02,3.25,.79,6.69-.19,9.52-1.81,2.77-1.58,4.19-3.91,5.13-6.91,.45-1.45,.6-2.38,.24-3.87-.43-1.76-1.37-3.23-2.28-4.78-.88-1.51-1.74-2.61-2.91-3.91-1.31-1.47-2.58-2.26-4.24-3.22-1.37-.8-2.82-1.38-4.35-1.77s-3.03-1.11-4.61-1.53c-1.48-.39-2.63-.41-4.12-.43-1.08-.02-2.03-.09-3.04-.45-.9-.32-1.66-.73-2.4-1.02Z"/><path class="cls-1" d="M15.97,21.11c-1.12-.08-2.44,.22-3.52,.53-2.07,.59-4.62,2.64-4.63,5.05,0,1.87,1.62,2.59,3.17,2.99,1.98,.52,3.65,.13,5.41-.88,1.63-.94,3.39-2.36,5.38-2.32,1.75,.04,2.73,1.51,2.58,3.19-.19,2.02-1.69,3.94-3.4,4.95-1.1,.65-1.91,1.2-3.22,1.23-1.59,.03-2.92-.54-4.43-.78"/><path class="cls-1" d="M50.32,27.56c-2.4,1.13-4.97,1.01-7.5,1.78-3.23,.99-6.13,2.58-8.93,4.47-2.25,1.52-3.01,4.54-3.14,7.12-.13,2.44,1.04,4.77,2.58,6.59,1.51,1.78,3.37,2.48,5.65,2.75,1.1,.13,1.79,.11,2.81-.35,1.21-.54,2.13-1.42,3.13-2.28s1.64-1.6,2.42-2.61c.88-1.14,1.27-2.16,1.74-3.48,.39-1.09,.61-2.21,.69-3.36s.39-2.33,.48-3.52c.08-1.11-.06-1.94-.24-3.02-.13-.78-.21-1.47-.09-2.24,.11-.69,.3-1.29,.41-1.86Z"/><path class="cls-1" d="M45.95,39.14c-.1-.81-.49-1.72-.85-2.45-.71-1.41-2.51-2.96-4.25-2.64-1.35,.25-1.64,1.51-1.72,2.68-.11,1.49,.4,2.64,1.36,3.76,.9,1.05,2.15,2.12,2.39,3.55,.21,1.26-.72,2.17-1.94,2.28-1.48,.14-3.06-.68-4.01-1.77-.61-.7-1.12-1.21-1.32-2.15-.23-1.14,0-2.17-.04-3.29"/><path class="cls-1" d="M2.95,13.74c.41,1.37,1.39,2.77,2.17,3.94,.87,1.3,1.93,2.53,2.94,3.72,.81,.96,1.7,1.78,2.72,2.5,1.15,.82,2.28,1.76,3.48,2.5,.53,.33,1.12,.54,1.64,.9,.66,.46,1.21,1.04,1.83,1.55,1.15,.96,2.39,1.61,3.46,2.68,1.99,2,3.6,4.35,4.99,6.82,2.28,4.05,3.35,9.06,3.5,13.67,.03,1.04,0,2.09,0,3.13,0,.62,.29,2.09-.06,2.53"/><path class="cls-1" d="M49.45,28.96c-1.1,1.28-1.93,2.75-3.05,4.02-.8,.92-1.71,1.73-2.49,2.68-.54,.66-1.03,1.34-1.53,2.03-.57,.79-1.22,1.52-1.79,2.31-.66,.91-1.23,1.87-1.92,2.76-1.06,1.37-2.1,2.87-2.93,4.39-.76,1.39-1.61,2.75-2.43,4.11-.52,.86-.85,1.82-1.28,2.72-.31,.64-.58,1.33-.81,2-.1,.3-.26,.73-.26,1.04"/><path class="cls-1" d="M33.73,25.45c-.67-1.56-1.39-3.12-1.67-4.8-.43-2.52-.13-5.32,1.03-7.6,1.23-2.42,3-4.35,4.66-6.46,1.36-1.72,2.7-3.5,4.22-5.09,1.02,.58,.82,2.87,.91,3.84,.3,2.95,.14,5.51-.47,8.41-.43,2.07-1.25,4.02-2.29,5.85-.71,1.25-1.3,2.7-2.2,3.84-.78,.98-2,1.87-3.14,2.37-.37,.16-.85,.01-1.05-.36Z"/><path d="M26,49.23c-.51-.61-1.02-1.25-1.67-1.72-.97-.71-2.21-1.18-3.42-1.18-1.28,0-2.47,.34-3.71,.59-.96,.2-1.94,.37-2.89,.65-.1,.03-.15,.14-.1,.23,.21,.46,1.04,.8,1.38,1.01,1.24,.79,2.4,1.27,3.84,1.64,.89,.23,1.82,.27,2.74,.22,.68-.03,1.42,.02,2.08-.11,.58-.12,1.21-.44,1.66-.82,.15-.12,.18-.35,.07-.52Z"/><path d="M43.39,56.31c-.27-.45-.54-.92-.92-1.3-.56-.57-1.33-1.01-2.12-1.13-.84-.13-1.66-.03-2.5,0-.65,.03-1.31,.04-1.96,.13-.07,0-.11,.08-.09,.14,.09,.32,.6,.63,.8,.81,.73,.65,1.45,1.08,2.35,1.48,.56,.24,1.17,.37,1.78,.43,.45,.05,.93,.16,1.38,.14,.39-.02,.84-.17,1.18-.37,.11-.06,.16-.21,.1-.33Z"/><path d="M27.43,17.6c.41-.69,.84-1.37,1.07-2.14,.35-1.15,.39-2.48-.02-3.62-.43-1.21-1.14-2.21-1.79-3.3-.5-.84-1-1.71-1.57-2.51-.06-.08-.18-.09-.25-.02-.36,.35-.41,1.24-.5,1.63-.33,1.43-.41,2.69-.28,4.17,.08,.92,.35,1.81,.7,2.66,.26,.63,.45,1.34,.8,1.93,.3,.51,.82,1,1.33,1.3,.16,.1,.4,.06,.51-.1Z"/><path d="M50.29,19.47c-.13,.79-.24,1.59-.56,2.33-.47,1.11-1.3,2.15-2.34,2.76-1.11,.65-2.29,.96-3.49,1.38-.93,.32-1.86,.67-2.82,.91-.1,.02-.2-.04-.21-.14-.06-.5,.48-1.21,.67-1.57,.66-1.31,1.42-2.32,2.47-3.37,.65-.65,1.43-1.16,2.25-1.59,.6-.32,1.21-.74,1.85-.97,.56-.19,1.27-.24,1.85-.14,.19,.03,.34,.21,.33,.41Z"/><path class="cls-1" d="M41.89,2.48c-.08,.83-.3,1.69-.49,2.5-.34,1.45-.62,2.96-1.01,4.39-.72,2.65-2.51,4.79-3.37,7.35-.54,1.59-1.09,3.18-1.59,4.78-.21,.65-.2,1.36-.41,2.01-.27,.85-.44,1.55-.42,2.47"/></g></g></svg>