<?xml version="1.0" encoding="UTF-8"?><svg id="Layer_2" xmlns="http://www.w3.org/2000/svg" viewBox="0 0 58.95 71.5"><g id="Layer_1-2"><g><path d="M20.56,71.47c-1.01-.22-1.51-1.37-1-2.27,.66-1.16,1.52-2.18,2.55-3.08,1.95-1.7,4.22-2.85,6.64-3.73,1.12-.41,2.28-.71,3.4-1.15,2.48-.96,4.84-2.17,7.09-3.58,3.5-2.18,6.72-4.73,9.77-7.48,1.81-1.63,3.54-3.34,5.25-5.08,.44-.45,.83-.94,1.12-1.49,.75-1.39,.7-2.11-.28-2.37-.79-.22-1.56-.08-2.31,.2-.34,.12-.65,.29-.95,.5-2.5,1.73-5.08,3.32-7.78,4.71-3.03,1.56-6.15,2.86-9.46,3.67-2.18,.54-4.38,.85-7.09,.86-1.1,.02-2.64-.16-4.17-.47-1.39-.28-2.46-1.03-3.17-2.28-.67-1.2-.9-2.51-1-3.86-.09-1.18-.04-2.36,.09-3.54,.18-1.65,.2-3.33-.11-4.98-.16-.83-.43-1.65-.86-2.38-.4-.69-.91-1.27-1.72-1.5-.7-.2-1.22,.09-1.28,.8-.08,.97-.22,1.93-.37,2.89-.28,1.9-.66,3.78-1.15,5.64-.35,1.35-.77,2.69-1.26,4-.78,2.11-1.71,4.14-2.88,6.06-.52,.86-1.07,1.7-1.44,2.64-.54,1.37-.73,2.78-.46,4.24,.08,.41,.1,1.08,.06,1.49-.14,1.3-.64,2.47-1.34,3.56-1.11,1.72-2.43,3.07-3.89,4.38-.64,.58-1.64,.5-2.2-.16v-.02c-.54-.63-.47-1.57,.14-2.12,.14-.12,.27-.25,.41-.37,1.19-1.11,2.32-2.26,3.15-3.68,.49-.84,.85-1.73,.64-2.74-.06-.29-.07-.58-.1-.87-.12-1.54,.1-3.03,.62-4.48,.44-1.21,1.09-2.31,1.76-3.4,1.72-2.81,2.9-5.86,3.76-9.03,.76-2.8,1.23-5.65,1.53-8.54,.18-1.72,1.49-3.17,3.2-3.37,1.97-.23,3.47,.58,4.68,1.96,1.14,1.29,1.7,2.88,2.02,4.58s.33,3.51,.15,5.26c-.1,1.01-.15,2.03-.11,3.05,.04,.84,.1,1.68,.4,2.48,.23,.62,.58,1.13,1.28,1.27,.29,.06,.58,.11,.87,.17,.07,.02,.14,0,.2-.05,1.04-.86,2.04-1.78,2.99-2.75,2.87-2.93,5.2-6.25,7.14-9.86,.63-1.17,1.26-2.33,2.29-3.24,1.62-1.44,4.09-1.5,5.81-.17,.87,.67,1.53,1.5,2.1,2.41,0,0,.02,.01,.02,0,.04-.03,.08-.06,.12-.09,1.01-.77,2.14-1.41,3.34-1.82,1.08-.37,2.17-.53,3.25-.13,1.31,.49,2.02,1.51,2.44,2.79,.31,.95,.44,1.93,.45,2.92,0,.17,.03,.26,.23,.27,.25,.02,.51,.08,.75,.15,1.98,.54,3.17,2.14,3.01,4.13-.12,1.56-.76,2.95-1.8,4.07-2.54,2.74-5.25,5.31-8.1,7.73-2.2,1.87-4.48,3.62-6.89,5.21-2.83,1.86-5.79,3.46-8.95,4.68-1.47,.57-3.02,.94-4.48,1.56-1.81,.78-3.52,1.71-4.96,3.08-.61,.59-1.13,1.23-1.54,1.96-.33,.59-1,.9-1.67,.75h0Zm13.51-24.17c.73-.17,1.27-.63,1.84-1.04,.86-.62,1.68-1.29,2.4-2.07,1.13-1.22,2.09-2.58,2.73-4.12,.5-1.21,1.13-2.36,1.91-3.41,.07-.1,.14-.18,.06-.32-.47-.82-.97-1.61-1.76-2.18-.61-.44-1.14-.43-1.73,.03-.69,.54-1.1,1.29-1.49,2.04-.68,1.3-1.42,2.58-2.22,3.82-1.79,2.8-3.85,5.38-6.21,7.72-.08,.08-.2,.13-.24,.29,1.61-.11,3.16-.4,4.7-.76Zm11.19-4.81c1.79-1.04,3.53-2.16,5.23-3.33,.34-.23,.71-.43,1.11-.54,.22-.06,.32-.11,.3-.32-.04-.72-.06-1.45-.26-2.15-.37-1.32-.78-1.35-1.83-.97-2.3,.84-4.01,2.39-5.21,4.52-.5,.89-.82,1.86-1.31,2.74-.3,.54-.61,1.06-.93,1.59,.99-.47,1.95-1,2.9-1.54Z"/><path d="M51.74,10.51c-1.95-3.7-5.11-6.74-8.89-8.56-2.69-1.29-5.57-1.95-8.56-1.95s-5.88,.66-8.56,1.95c-.05,.02-.09,.05-.13,.07-3.71,1.81-6.82,4.83-8.76,8.49-.23,.44-.23,.97,0,1.41,1.95,3.67,5.07,6.69,8.8,8.51,.03,.02,.06,.03,.1,.05,2.68,1.29,5.56,1.94,8.55,1.94s5.8-.64,8.47-1.9c.03-.01,.06-.03,.1-.04,3.77-1.83,6.93-4.87,8.88-8.57,.23-.43,.23-.96,0-1.4Zm-24.63,7.3s-.05-.03-.08-.04c-2.95-1.42-5.46-3.73-7.14-6.56,1.68-2.82,4.19-5.13,7.14-6.55,.04-.02,.08-.04,.12-.07,.38-.17,.77-.32,1.15-.46-2.01,1.7-3.3,4.24-3.3,7.08s1.29,5.38,3.3,7.08c-.4-.15-.8-.3-1.19-.48Zm7.18-.31c-3.47,0-6.29-2.82-6.29-6.29s2.82-6.28,6.29-6.28c.74,0,1.44,.12,2.09,.36-1.18,.17-2.09,1.18-2.09,2.41,0,1.35,1.1,2.45,2.45,2.45s2.44-1.1,2.44-2.45c0-.18-.02-.35-.05-.51,.9,1.09,1.45,2.5,1.45,4.02,0,3.47-2.82,6.29-6.29,6.29Zm7.34,.24s-.06,.02-.08,.03c-.42,.2-.85,.36-1.27,.53,2.01-1.71,3.3-4.25,3.3-7.09s-1.29-5.38-3.3-7.08c.43,.16,.85,.32,1.27,.52,2.96,1.43,5.48,3.74,7.14,6.56-1.65,2.79-4.13,5.09-7.06,6.53Z"/></g></g></svg>